<svg xmlns="http://www.w3.org/2000/svg" viewBox="0 0 1600 1000"><defs><radialGradient id="g" cx="70%" cy="35%"><stop offset="0" stop-color="#446bbb"/><stop offset=".45" stop-color="#142746"/><stop offset="1" stop-color="#04070d"/></radialGradient><linearGradient id="sun" x1="0" x2="1"><stop stop-color="#f5d98a"/><stop offset="1" stop-color="#a76b33"/></linearGradient></defs><rect width="1600" height="1000" fill="url(#g)"/><g fill="#fff" opacity=".8"><circle cx="220" cy="170" r="2"/><circle cx="300" cy="245" r="1.5"/><circle cx="1180" cy="190" r="2"/><circle cx="1310" cy="340" r="1.5"/><circle cx="1000" cy="110" r="1"/><circle cx="720" cy="260" r="1.5"/></g><path d="M0 840 C260 650 430 730 620 560 C820 380 1010 510 1240 300 C1370 180 1490 150 1600 120 L1600 1000 L0 1000 Z" fill="#07101f" opacity=".82"/><path d="M0 900 C260 760 510 810 720 670 C930 520 1120 610 1600 380 L1600 1000 L0 1000 Z" fill="#111a2d"/><circle cx="1050" cy="410" r="120" fill="none" stroke="url(#sun)" stroke-width="18" opacity=".88"/><path d="M1050 175 L1071 382 L1265 410 L1071 438 L1050 645 L1029 438 L835 410 L1029 382 Z" fill="#f5d98a" opacity=".85"/><path d="M1430 120 C1300 270 1230 460 1270 700" fill="none" stroke="#d8aa52" stroke-width="2" opacity=".45"/></svg>
